<svg width="708" height="229" viewBox="0 0 708 229" fill="none" xmlns="http://www.w3.org/2000/svg">
<g clip-path="url(#clip0_1_56)">
<path d="M461.293 0C411.088 0 366.011 26.1329 366.011 74.0882C366.011 129.318 445.638 133.089 445.638 160.569C445.638 172.154 432.142 182.661 409.469 182.661C377.078 182.661 352.785 168.113 352.785 168.113L342.528 216.607C342.528 216.607 370.33 229 407.579 229C462.643 229 505.83 201.789 505.83 152.756C505.83 94.5635 425.934 90.7918 425.934 65.1976C425.934 56.0376 437 46.0694 459.674 46.0694C485.316 46.0694 506.37 56.5765 506.37 56.5765L516.627 9.69882C516.357 9.69882 493.414 0 461.293 0ZM1.3496 3.50235L0 10.5071C0 10.5071 21.0538 14.2788 40.2181 22.0918C64.7808 30.9824 66.4003 36.1012 70.719 51.9965L115.796 225.228H176.258L268.84 3.50235H208.648L148.996 154.373L124.703 26.4024C122.544 11.8541 111.207 3.50235 97.1712 3.50235H1.3496ZM293.133 3.50235L245.897 225.228H303.39L350.356 3.50235H293.133ZM613.258 3.50235C599.492 3.50235 592.204 10.7765 586.806 23.7082L502.591 225.228H562.783L574.39 191.552H647.808L654.826 225.228H708L661.844 3.50235H613.258ZM621.086 63.5812L638.9 146.829H591.125L621.086 63.5812Z" fill="#1434CB"/>
</g>
<defs>
<clipPath id="clip0_1_56">
<rect width="708" height="229" fill="white"/>
</clipPath>
</defs>
</svg>
